# xmcd
#
# Track frame offsets:
#	150
#	10700
#	42769
#	59220
#	80358
#	98381
#	112288
#	123649
#
# Disc length: 1746 seconds
#
# Revision: 0
# Processed by: cddbd v1.5.2PL0 Copyright (c) Steve Scherf et al.
# Submitted via: audiograbber 1.83.01
#
DISCID=6406d008
DTITLE=Ruth Dolores Weiss - Come See (Raw Versions)
DYEAR=2004
DGENRE=
TTITLE0=Wishing
TTITLE1=Lat's Dance
TTITLE2=Island Of Faith
TTITLE3=I Love (This Blue Life Of Mine)
TTITLE4=Tango Of The Second Chance
TTITLE5=I've Been Such A Good Girl
TTITLE6=Letter
TTITLE7=Bach-Air
EXTD=
EXTT0=
EXTT1=
EXTT2=
EXTT3=
EXTT4=
EXTT5=
EXTT6=
EXTT7=
PLAYORDER=
